<svg id="Layer_1" data-name="Layer 1" xmlns="http://www.w3.org/2000/svg" viewBox="0 0 432 432"><defs><style>.cls-1{fill:#e8e6df;}.cls-2{fill:#37464a;}.cls-3{fill:#a32424;}</style></defs><path class="cls-1" d="M72.44,42.38V315.62c49.67,2.88,96.31,16.34,139.32,42.54V85.91C167.21,59.87,120.73,45.63,72.44,42.38Z"/><path class="cls-1" d="M359.56,42.38V315.62c-49.67,2.88-96.31,16.34-139.32,42.54V85.91C264.79,59.87,311.27,45.63,359.56,42.38Z"/><path class="cls-2" d="M393.56,97.5l-.29,252.57c-60.88-9-121.51,2.71-170.87,32.48a9.37,9.37,0,0,1-4.87,1.38h-2.85a10.22,10.22,0,0,1-5.26-1.48c-49.33-29.7-109.88-41.37-170.69-32.38L38.44,97.5H21.75v275c62.46-21.83,133.7-11.73,187.73,15.85a11,11,0,0,0,5.05,1.23H218a8.89,8.89,0,0,0,4.07-1c54.08-27.76,125.55-38,188.19-16.08V97.5Z"/><path class="cls-1" d="M369.25,68.14l-3.08,258.42c-56.58,1.71-101.77,12.89-143,40.91a11.79,11.79,0,0,1-6.61,2.08H215.1a10.64,10.64,0,0,1-6-1.87c-41.32-28.17-86.6-39.41-143.31-41.12L62.75,68.14H45.18l1.46,272.05c56.74-4.9,111.6,5.35,162,34.4a13.72,13.72,0,0,0,6.8,1.85h1.84a10.56,10.56,0,0,0,5.3-1.45c50.63-29.36,105.73-39.73,162.74-34.8l1.46-272Z"/><path class="cls-3" d="M290.45,55.07v75.64l-16.14-13.2-15.62,13.2V66.54A265.19,265.19,0,0,1,290.45,55.07Z"/></svg>